<mxfile host="app.diagrams.net" modified="2024-03-19T11:57:35.451Z" agent="Mozilla/5.0 (Macintosh; Intel Mac OS X 10_15_7) AppleWebKit/537.36 (KHTML, like Gecko) Chrome/122.0.0.0 Safari/537.36 Edg/122.0.0.0" etag="QhVSrdGJa_8DbXKy0opx" version="24.0.4" type="github" pages="2">
  <diagram name="第 1 页" id="X2lNyXTla8AAncjJM4n9">
    <mxGraphModel dx="2013" dy="736" grid="1" gridSize="10" guides="1" tooltips="1" connect="1" arrows="1" fold="1" page="1" pageScale="1" pageWidth="827" pageHeight="1169" math="0" shadow="0">
      <root>
        <mxCell id="0" />
        <mxCell id="1" parent="0" />
        <mxCell id="gKtPU8hEpSosGi3euH6x-48" style="edgeStyle=orthogonalEdgeStyle;rounded=0;orthogonalLoop=1;jettySize=auto;html=1;exitX=0;exitY=0.25;exitDx=0;exitDy=0;" parent="1" source="gKtPU8hEpSosGi3euH6x-12" target="gKtPU8hEpSosGi3euH6x-2" edge="1">
          <mxGeometry relative="1" as="geometry" />
        </mxCell>
        <mxCell id="gKtPU8hEpSosGi3euH6x-49" style="edgeStyle=orthogonalEdgeStyle;rounded=0;orthogonalLoop=1;jettySize=auto;html=1;exitX=0.5;exitY=1;exitDx=0;exitDy=0;" parent="1" source="gKtPU8hEpSosGi3euH6x-12" target="gKtPU8hEpSosGi3euH6x-15" edge="1">
          <mxGeometry relative="1" as="geometry" />
        </mxCell>
        <mxCell id="gKtPU8hEpSosGi3euH6x-12" value="" style="rounded=1;whiteSpace=wrap;html=1;absoluteArcSize=1;arcSize=14;strokeWidth=2;" parent="1" vertex="1">
          <mxGeometry x="500" y="155" width="370" height="260" as="geometry" />
        </mxCell>
        <mxCell id="gKtPU8hEpSosGi3euH6x-37" style="edgeStyle=orthogonalEdgeStyle;rounded=0;orthogonalLoop=1;jettySize=auto;html=1;exitX=0.5;exitY=1;exitDx=0;exitDy=0;exitPerimeter=0;entryX=0.5;entryY=0;entryDx=0;entryDy=0;" parent="1" source="gKtPU8hEpSosGi3euH6x-1" target="gKtPU8hEpSosGi3euH6x-2" edge="1">
          <mxGeometry relative="1" as="geometry" />
        </mxCell>
        <mxCell id="gKtPU8hEpSosGi3euH6x-38" value="输入" style="edgeLabel;html=1;align=center;verticalAlign=middle;resizable=0;points=[];" parent="gKtPU8hEpSosGi3euH6x-37" vertex="1" connectable="0">
          <mxGeometry x="-0.18" y="-3" relative="1" as="geometry">
            <mxPoint as="offset" />
          </mxGeometry>
        </mxCell>
        <mxCell id="gKtPU8hEpSosGi3euH6x-1" value="开始" style="strokeWidth=2;html=1;shape=mxgraph.flowchart.terminator;whiteSpace=wrap;" parent="1" vertex="1">
          <mxGeometry x="170" y="80" width="90" height="50" as="geometry" />
        </mxCell>
        <mxCell id="gKtPU8hEpSosGi3euH6x-2" value="&lt;div&gt;&lt;span style=&quot;color: rgb(37, 37, 37); font-family: Roboto, arial, sans-serif; text-align: start;&quot;&gt;&lt;font style=&quot;font-size: 13px;&quot;&gt;用户查询和函数定义列表&lt;/font&gt;&lt;/span&gt;&lt;/div&gt;&lt;div&gt;&lt;span style=&quot;color: rgb(37, 37, 37); font-family: Roboto, arial, sans-serif; text-align: start;&quot;&gt;&lt;font style=&quot;font-size: 13px;&quot;&gt;调用LLM&lt;/font&gt;&lt;/span&gt;&lt;br&gt;&lt;/div&gt;" style="rounded=1;whiteSpace=wrap;html=1;absoluteArcSize=1;arcSize=14;strokeWidth=2;" parent="1" vertex="1">
          <mxGeometry x="130" y="180" width="170" height="80" as="geometry" />
        </mxCell>
        <mxCell id="gKtPU8hEpSosGi3euH6x-41" style="edgeStyle=orthogonalEdgeStyle;rounded=0;orthogonalLoop=1;jettySize=auto;html=1;exitX=0.5;exitY=1;exitDx=0;exitDy=0;exitPerimeter=0;entryX=0.5;entryY=0;entryDx=0;entryDy=0;" parent="1" source="gKtPU8hEpSosGi3euH6x-3" target="gKtPU8hEpSosGi3euH6x-25" edge="1">
          <mxGeometry relative="1" as="geometry" />
        </mxCell>
        <mxCell id="gKtPU8hEpSosGi3euH6x-42" style="edgeStyle=orthogonalEdgeStyle;rounded=0;orthogonalLoop=1;jettySize=auto;html=1;exitX=0.5;exitY=1;exitDx=0;exitDy=0;exitPerimeter=0;" parent="1" source="gKtPU8hEpSosGi3euH6x-3" target="gKtPU8hEpSosGi3euH6x-24" edge="1">
          <mxGeometry relative="1" as="geometry" />
        </mxCell>
        <mxCell id="gKtPU8hEpSosGi3euH6x-3" value="是否调用函数" style="strokeWidth=2;html=1;shape=mxgraph.flowchart.decision;whiteSpace=wrap;" parent="1" vertex="1">
          <mxGeometry x="165" y="300" width="100" height="70" as="geometry" />
        </mxCell>
        <mxCell id="gKtPU8hEpSosGi3euH6x-5" value="" style="rounded=1;whiteSpace=wrap;html=1;absoluteArcSize=1;arcSize=14;strokeWidth=2;" parent="1" vertex="1">
          <mxGeometry x="530" y="225" width="100" height="100" as="geometry" />
        </mxCell>
        <mxCell id="gKtPU8hEpSosGi3euH6x-47" style="edgeStyle=orthogonalEdgeStyle;rounded=0;orthogonalLoop=1;jettySize=auto;html=1;exitX=1;exitY=0.25;exitDx=0;exitDy=0;exitPerimeter=0;entryX=0;entryY=0.5;entryDx=0;entryDy=0;" parent="1" source="gKtPU8hEpSosGi3euH6x-6" target="gKtPU8hEpSosGi3euH6x-12" edge="1">
          <mxGeometry relative="1" as="geometry" />
        </mxCell>
        <mxCell id="gKtPU8hEpSosGi3euH6x-6" value="模型回复(LLM Assistant)" style="strokeWidth=2;html=1;shape=mxgraph.flowchart.document2;whiteSpace=wrap;size=0.25;" parent="1" vertex="1">
          <mxGeometry x="252.5" y="535" width="150" height="40" as="geometry" />
        </mxCell>
        <mxCell id="gKtPU8hEpSosGi3euH6x-7" value="&lt;span style=&quot;color: rgb(37, 37, 37); font-family: Roboto, arial, sans-serif; text-align: start; font-size: 13px;&quot;&gt;&lt;font style=&quot;font-size: 13px;&quot;&gt;通过将函数结果作为新消息调模型&lt;/font&gt;&lt;/span&gt;&lt;div style=&quot;font-size: 13px;&quot;&gt;&lt;span style=&quot;color: rgb(37, 37, 37); font-family: Roboto, arial, sans-serif; text-align: start;&quot;&gt;&lt;font style=&quot;font-size: 13px;&quot;&gt;并让模型将结果汇总返回&lt;/font&gt;&lt;/span&gt;&lt;/div&gt;" style="rounded=1;whiteSpace=wrap;html=1;absoluteArcSize=1;arcSize=14;strokeWidth=2;fontSize=9;" parent="1" vertex="1">
          <mxGeometry x="212.5" y="630" width="230" height="80" as="geometry" />
        </mxCell>
        <mxCell id="gKtPU8hEpSosGi3euH6x-11" value="结束" style="strokeWidth=2;html=1;shape=mxgraph.flowchart.terminator;whiteSpace=wrap;" parent="1" vertex="1">
          <mxGeometry x="282.5" y="850" width="90" height="50" as="geometry" />
        </mxCell>
        <mxCell id="gKtPU8hEpSosGi3euH6x-13" value="" style="strokeWidth=2;html=1;shape=mxgraph.flowchart.database;whiteSpace=wrap;" parent="1" vertex="1">
          <mxGeometry x="550" y="225" width="60" height="60" as="geometry" />
        </mxCell>
        <mxCell id="gKtPU8hEpSosGi3euH6x-50" style="edgeStyle=orthogonalEdgeStyle;rounded=0;orthogonalLoop=1;jettySize=auto;html=1;exitX=0.5;exitY=1;exitDx=0;exitDy=0;entryX=0.5;entryY=0;entryDx=0;entryDy=0;" parent="1" source="gKtPU8hEpSosGi3euH6x-15" target="gKtPU8hEpSosGi3euH6x-16" edge="1">
          <mxGeometry relative="1" as="geometry" />
        </mxCell>
        <mxCell id="gKtPU8hEpSosGi3euH6x-15" value="根据LLM Function Calling提供的Name与参数进行匹配调用" style="rounded=1;whiteSpace=wrap;html=1;absoluteArcSize=1;arcSize=14;strokeWidth=2;" parent="1" vertex="1">
          <mxGeometry x="580" y="470" width="210" height="70" as="geometry" />
        </mxCell>
        <mxCell id="gKtPU8hEpSosGi3euH6x-51" style="edgeStyle=orthogonalEdgeStyle;rounded=0;orthogonalLoop=1;jettySize=auto;html=1;exitX=0.5;exitY=1;exitDx=0;exitDy=0;" parent="1" source="gKtPU8hEpSosGi3euH6x-16" target="gKtPU8hEpSosGi3euH6x-17" edge="1">
          <mxGeometry relative="1" as="geometry" />
        </mxCell>
        <mxCell id="gKtPU8hEpSosGi3euH6x-16" value="执行API Service,反馈成功or失败结果" style="rounded=1;whiteSpace=wrap;html=1;absoluteArcSize=1;arcSize=14;strokeWidth=2;" parent="1" vertex="1">
          <mxGeometry x="580" y="580" width="210" height="70" as="geometry" />
        </mxCell>
        <mxCell id="gKtPU8hEpSosGi3euH6x-29" value="" style="rounded=1;whiteSpace=wrap;html=1;" parent="1" vertex="1">
          <mxGeometry x="520" y="210" width="150" height="180" as="geometry" />
        </mxCell>
        <mxCell id="gKtPU8hEpSosGi3euH6x-17" value="保存API执行结果" style="rounded=1;whiteSpace=wrap;html=1;absoluteArcSize=1;arcSize=14;strokeWidth=2;" parent="1" vertex="1">
          <mxGeometry x="580" y="685" width="210" height="60" as="geometry" />
        </mxCell>
        <mxCell id="gKtPU8hEpSosGi3euH6x-19" value="Function Response" style="strokeWidth=2;html=1;shape=mxgraph.flowchart.document2;whiteSpace=wrap;size=0.25;" parent="1" vertex="1">
          <mxGeometry x="610" y="780" width="150" height="40" as="geometry" />
        </mxCell>
        <mxCell id="gKtPU8hEpSosGi3euH6x-44" style="edgeStyle=orthogonalEdgeStyle;rounded=0;orthogonalLoop=1;jettySize=auto;html=1;exitX=0.5;exitY=1;exitDx=0;exitDy=0;" parent="1" source="gKtPU8hEpSosGi3euH6x-24" target="gKtPU8hEpSosGi3euH6x-6" edge="1">
          <mxGeometry relative="1" as="geometry" />
        </mxCell>
        <mxCell id="gKtPU8hEpSosGi3euH6x-24" value="LLM返回&lt;div&gt;Function与相应参数&lt;/div&gt;" style="rounded=1;whiteSpace=wrap;html=1;absoluteArcSize=1;arcSize=14;strokeWidth=2;" parent="1" vertex="1">
          <mxGeometry x="242" y="420" width="170" height="80" as="geometry" />
        </mxCell>
        <mxCell id="gKtPU8hEpSosGi3euH6x-25" value="&lt;div&gt;LLM正常回复&lt;/div&gt;" style="rounded=1;whiteSpace=wrap;html=1;absoluteArcSize=1;arcSize=14;strokeWidth=2;" parent="1" vertex="1">
          <mxGeometry y="420" width="170" height="80" as="geometry" />
        </mxCell>
        <mxCell id="gKtPU8hEpSosGi3euH6x-26" value="Function List" style="text;html=1;align=center;verticalAlign=middle;whiteSpace=wrap;rounded=0;" parent="1" vertex="1">
          <mxGeometry x="620" y="165" width="110" height="30" as="geometry" />
        </mxCell>
        <mxCell id="gKtPU8hEpSosGi3euH6x-30" value="Functions" style="strokeWidth=2;html=1;shape=mxgraph.flowchart.database;whiteSpace=wrap;" parent="1" vertex="1">
          <mxGeometry x="560" y="225" width="70" height="60" as="geometry" />
        </mxCell>
        <mxCell id="gKtPU8hEpSosGi3euH6x-31" value="API Service" style="strokeWidth=2;html=1;shape=mxgraph.flowchart.database;whiteSpace=wrap;" parent="1" vertex="1">
          <mxGeometry x="560" y="315" width="70" height="60" as="geometry" />
        </mxCell>
        <mxCell id="gKtPU8hEpSosGi3euH6x-32" value="定义API函数的&lt;div&gt;Json Schema&lt;/div&gt;" style="rounded=1;whiteSpace=wrap;html=1;" parent="1" vertex="1">
          <mxGeometry x="700" y="222.5" width="140" height="65" as="geometry" />
        </mxCell>
        <mxCell id="gKtPU8hEpSosGi3euH6x-33" value="定义API相关的&lt;div&gt;功能与错误反馈&lt;/div&gt;" style="rounded=1;whiteSpace=wrap;html=1;" parent="1" vertex="1">
          <mxGeometry x="700" y="312.5" width="140" height="65" as="geometry" />
        </mxCell>
        <mxCell id="gKtPU8hEpSosGi3euH6x-36" value="模型回复" style="strokeWidth=2;html=1;shape=mxgraph.flowchart.document2;whiteSpace=wrap;size=0.25;" parent="1" vertex="1">
          <mxGeometry x="252.5" y="770" width="150" height="40" as="geometry" />
        </mxCell>
        <mxCell id="gKtPU8hEpSosGi3euH6x-40" style="edgeStyle=orthogonalEdgeStyle;rounded=0;orthogonalLoop=1;jettySize=auto;html=1;exitX=0.5;exitY=1;exitDx=0;exitDy=0;entryX=0.5;entryY=0;entryDx=0;entryDy=0;entryPerimeter=0;" parent="1" source="gKtPU8hEpSosGi3euH6x-2" target="gKtPU8hEpSosGi3euH6x-3" edge="1">
          <mxGeometry relative="1" as="geometry" />
        </mxCell>
        <mxCell id="gKtPU8hEpSosGi3euH6x-45" style="edgeStyle=orthogonalEdgeStyle;rounded=0;orthogonalLoop=1;jettySize=auto;html=1;exitX=0;exitY=0.5;exitDx=0;exitDy=0;entryX=1;entryY=0.5;entryDx=0;entryDy=0;entryPerimeter=0;" parent="1" source="gKtPU8hEpSosGi3euH6x-33" target="gKtPU8hEpSosGi3euH6x-31" edge="1">
          <mxGeometry relative="1" as="geometry" />
        </mxCell>
        <mxCell id="gKtPU8hEpSosGi3euH6x-46" value="" style="endArrow=classic;html=1;rounded=0;exitX=0;exitY=0.5;exitDx=0;exitDy=0;entryX=1;entryY=0.5;entryDx=0;entryDy=0;entryPerimeter=0;" parent="1" source="gKtPU8hEpSosGi3euH6x-32" target="gKtPU8hEpSosGi3euH6x-30" edge="1">
          <mxGeometry width="50" height="50" relative="1" as="geometry">
            <mxPoint x="620" y="310" as="sourcePoint" />
            <mxPoint x="670" y="260" as="targetPoint" />
          </mxGeometry>
        </mxCell>
        <mxCell id="gKtPU8hEpSosGi3euH6x-52" style="edgeStyle=orthogonalEdgeStyle;rounded=0;orthogonalLoop=1;jettySize=auto;html=1;exitX=0.5;exitY=1;exitDx=0;exitDy=0;entryX=0.5;entryY=0;entryDx=0;entryDy=0;entryPerimeter=0;" parent="1" source="gKtPU8hEpSosGi3euH6x-17" target="gKtPU8hEpSosGi3euH6x-19" edge="1">
          <mxGeometry relative="1" as="geometry" />
        </mxCell>
        <mxCell id="gKtPU8hEpSosGi3euH6x-54" value="" style="endArrow=classic;html=1;rounded=0;entryX=0.5;entryY=0;entryDx=0;entryDy=0;" parent="1" target="gKtPU8hEpSosGi3euH6x-7" edge="1">
          <mxGeometry width="50" height="50" relative="1" as="geometry">
            <mxPoint x="328" y="570" as="sourcePoint" />
            <mxPoint x="420" y="590" as="targetPoint" />
          </mxGeometry>
        </mxCell>
        <mxCell id="gKtPU8hEpSosGi3euH6x-55" style="edgeStyle=orthogonalEdgeStyle;rounded=0;orthogonalLoop=1;jettySize=auto;html=1;exitX=0.5;exitY=1;exitDx=0;exitDy=0;entryX=0.5;entryY=0;entryDx=0;entryDy=0;entryPerimeter=0;" parent="1" source="gKtPU8hEpSosGi3euH6x-7" target="gKtPU8hEpSosGi3euH6x-36" edge="1">
          <mxGeometry relative="1" as="geometry" />
        </mxCell>
        <mxCell id="gKtPU8hEpSosGi3euH6x-56" value="" style="endArrow=classic;html=1;rounded=0;entryX=0.5;entryY=0;entryDx=0;entryDy=0;entryPerimeter=0;exitX=0.497;exitY=0.863;exitDx=0;exitDy=0;exitPerimeter=0;" parent="1" source="gKtPU8hEpSosGi3euH6x-36" target="gKtPU8hEpSosGi3euH6x-11" edge="1">
          <mxGeometry width="50" height="50" relative="1" as="geometry">
            <mxPoint x="50" y="830" as="sourcePoint" />
            <mxPoint x="100" y="780" as="targetPoint" />
          </mxGeometry>
        </mxCell>
        <mxCell id="gKtPU8hEpSosGi3euH6x-57" style="edgeStyle=orthogonalEdgeStyle;rounded=0;orthogonalLoop=1;jettySize=auto;html=1;exitX=0.5;exitY=1;exitDx=0;exitDy=0;entryX=0;entryY=0.5;entryDx=0;entryDy=0;entryPerimeter=0;" parent="1" source="gKtPU8hEpSosGi3euH6x-25" target="gKtPU8hEpSosGi3euH6x-11" edge="1">
          <mxGeometry relative="1" as="geometry" />
        </mxCell>
      </root>
    </mxGraphModel>
  </diagram>
  <diagram id="9cTj3lneAq-tGPdpkql2" name="第 2 页">
    <mxGraphModel dx="2754" dy="906" grid="1" gridSize="10" guides="1" tooltips="1" connect="1" arrows="1" fold="1" page="1" pageScale="1" pageWidth="827" pageHeight="1169" math="0" shadow="0">
      <root>
        <mxCell id="0" />
        <mxCell id="1" parent="0" />
        <mxCell id="KEKeuldosEZSE4gQ_pSY-1" style="edgeStyle=orthogonalEdgeStyle;rounded=0;orthogonalLoop=1;jettySize=auto;html=1;exitX=0;exitY=0.25;exitDx=0;exitDy=0;" edge="1" parent="1" source="KEKeuldosEZSE4gQ_pSY-3" target="KEKeuldosEZSE4gQ_pSY-7">
          <mxGeometry relative="1" as="geometry" />
        </mxCell>
        <mxCell id="KEKeuldosEZSE4gQ_pSY-3" value="" style="rounded=1;whiteSpace=wrap;html=1;absoluteArcSize=1;arcSize=14;strokeWidth=2;fillColor=#fff2cc;strokeColor=#d6b656;" vertex="1" parent="1">
          <mxGeometry x="500" y="150" width="370" height="279" as="geometry" />
        </mxCell>
        <mxCell id="KEKeuldosEZSE4gQ_pSY-4" style="edgeStyle=orthogonalEdgeStyle;rounded=0;orthogonalLoop=1;jettySize=auto;html=1;exitX=0.5;exitY=1;exitDx=0;exitDy=0;exitPerimeter=0;entryX=0.5;entryY=0;entryDx=0;entryDy=0;" edge="1" parent="1" source="KEKeuldosEZSE4gQ_pSY-6" target="KEKeuldosEZSE4gQ_pSY-7">
          <mxGeometry relative="1" as="geometry" />
        </mxCell>
        <mxCell id="KEKeuldosEZSE4gQ_pSY-5" value="输入" style="edgeLabel;html=1;align=center;verticalAlign=middle;resizable=0;points=[];" vertex="1" connectable="0" parent="KEKeuldosEZSE4gQ_pSY-4">
          <mxGeometry x="-0.18" y="-3" relative="1" as="geometry">
            <mxPoint as="offset" />
          </mxGeometry>
        </mxCell>
        <mxCell id="KEKeuldosEZSE4gQ_pSY-6" value="开始" style="strokeWidth=2;html=1;shape=mxgraph.flowchart.terminator;whiteSpace=wrap;fillColor=#ffe6cc;strokeColor=#d79b00;" vertex="1" parent="1">
          <mxGeometry x="170" y="80" width="90" height="50" as="geometry" />
        </mxCell>
        <mxCell id="KEKeuldosEZSE4gQ_pSY-7" value="&lt;div&gt;&lt;span style=&quot;color: rgb(37, 37, 37); font-family: Roboto, arial, sans-serif; text-align: start;&quot;&gt;&lt;font style=&quot;font-size: 13px;&quot;&gt;用户问题和Tools&lt;/font&gt;&lt;/span&gt;&lt;span style=&quot;font-size: 13px; color: rgb(37, 37, 37); font-family: Roboto, arial, sans-serif; text-align: start; background-color: initial;&quot;&gt;调用LLM&lt;/span&gt;&lt;/div&gt;" style="rounded=1;whiteSpace=wrap;html=1;absoluteArcSize=1;arcSize=14;strokeWidth=2;fillColor=#dae8fc;strokeColor=#6c8ebf;" vertex="1" parent="1">
          <mxGeometry x="130" y="180" width="170" height="80" as="geometry" />
        </mxCell>
        <mxCell id="KEKeuldosEZSE4gQ_pSY-8" style="edgeStyle=orthogonalEdgeStyle;rounded=0;orthogonalLoop=1;jettySize=auto;html=1;exitX=0.5;exitY=1;exitDx=0;exitDy=0;exitPerimeter=0;entryX=0.5;entryY=0;entryDx=0;entryDy=0;" edge="1" parent="1" source="KEKeuldosEZSE4gQ_pSY-10" target="KEKeuldosEZSE4gQ_pSY-26">
          <mxGeometry relative="1" as="geometry" />
        </mxCell>
        <mxCell id="KEKeuldosEZSE4gQ_pSY-42" value="无" style="edgeLabel;html=1;align=center;verticalAlign=middle;resizable=0;points=[];" vertex="1" connectable="0" parent="KEKeuldosEZSE4gQ_pSY-8">
          <mxGeometry relative="1" as="geometry">
            <mxPoint as="offset" />
          </mxGeometry>
        </mxCell>
        <mxCell id="KEKeuldosEZSE4gQ_pSY-9" style="edgeStyle=orthogonalEdgeStyle;rounded=0;orthogonalLoop=1;jettySize=auto;html=1;exitX=0.5;exitY=1;exitDx=0;exitDy=0;exitPerimeter=0;" edge="1" parent="1" source="KEKeuldosEZSE4gQ_pSY-10" target="KEKeuldosEZSE4gQ_pSY-25">
          <mxGeometry relative="1" as="geometry" />
        </mxCell>
        <mxCell id="KEKeuldosEZSE4gQ_pSY-43" value="有" style="edgeLabel;html=1;align=center;verticalAlign=middle;resizable=0;points=[];" vertex="1" connectable="0" parent="KEKeuldosEZSE4gQ_pSY-9">
          <mxGeometry relative="1" as="geometry">
            <mxPoint as="offset" />
          </mxGeometry>
        </mxCell>
        <mxCell id="KEKeuldosEZSE4gQ_pSY-10" value="是否触发&lt;div&gt;Tool调用&lt;/div&gt;" style="strokeWidth=2;html=1;shape=mxgraph.flowchart.decision;whiteSpace=wrap;fillColor=#d5e8d4;strokeColor=#82b366;" vertex="1" parent="1">
          <mxGeometry x="165" y="300" width="100" height="70" as="geometry" />
        </mxCell>
        <mxCell id="KEKeuldosEZSE4gQ_pSY-11" value="" style="rounded=1;whiteSpace=wrap;html=1;absoluteArcSize=1;arcSize=14;strokeWidth=2;" vertex="1" parent="1">
          <mxGeometry x="530" y="225" width="100" height="100" as="geometry" />
        </mxCell>
        <mxCell id="KEKeuldosEZSE4gQ_pSY-12" style="edgeStyle=orthogonalEdgeStyle;rounded=0;orthogonalLoop=1;jettySize=auto;html=1;exitX=1;exitY=0.25;exitDx=0;exitDy=0;exitPerimeter=0;entryX=0;entryY=0.5;entryDx=0;entryDy=0;" edge="1" parent="1" source="KEKeuldosEZSE4gQ_pSY-13" target="KEKeuldosEZSE4gQ_pSY-3">
          <mxGeometry relative="1" as="geometry">
            <Array as="points">
              <mxPoint x="403" y="550" />
              <mxPoint x="451" y="550" />
              <mxPoint x="451" y="290" />
            </Array>
          </mxGeometry>
        </mxCell>
        <mxCell id="KEKeuldosEZSE4gQ_pSY-66" value="Tool触发&lt;div&gt;模型处理函数&lt;/div&gt;" style="edgeLabel;html=1;align=center;verticalAlign=middle;resizable=0;points=[];" vertex="1" connectable="0" parent="KEKeuldosEZSE4gQ_pSY-12">
          <mxGeometry x="0.0867" y="-1" relative="1" as="geometry">
            <mxPoint as="offset" />
          </mxGeometry>
        </mxCell>
        <mxCell id="KEKeuldosEZSE4gQ_pSY-13" value="模型回复(LLM Assistant)" style="strokeWidth=2;html=1;shape=mxgraph.flowchart.document2;whiteSpace=wrap;size=0.25;fillColor=#b0e3e6;strokeColor=#0e8088;" vertex="1" parent="1">
          <mxGeometry x="252.5" y="535" width="150" height="40" as="geometry" />
        </mxCell>
        <mxCell id="KEKeuldosEZSE4gQ_pSY-14" value="&lt;span style=&quot;color: rgb(37, 37, 37); font-family: Roboto, arial, sans-serif; text-align: start; font-size: 13px;&quot;&gt;&lt;font style=&quot;font-size: 13px;&quot;&gt;通过将Tool处理结果反馈给LLM&lt;/font&gt;&lt;/span&gt;&lt;div style=&quot;font-size: 13px;&quot;&gt;&lt;span style=&quot;color: rgb(37, 37, 37); font-family: Roboto, arial, sans-serif; text-align: start;&quot;&gt;&lt;font style=&quot;font-size: 13px;&quot;&gt;并让模型将结果汇总返回&lt;br&gt;(可由LLM提供处理方案)&lt;/font&gt;&lt;/span&gt;&lt;/div&gt;" style="rounded=1;whiteSpace=wrap;html=1;absoluteArcSize=1;arcSize=14;strokeWidth=2;fontSize=9;fillColor=#dae8fc;strokeColor=#6c8ebf;" vertex="1" parent="1">
          <mxGeometry x="212" y="649" width="230" height="80" as="geometry" />
        </mxCell>
        <mxCell id="KEKeuldosEZSE4gQ_pSY-16" value="" style="strokeWidth=2;html=1;shape=mxgraph.flowchart.database;whiteSpace=wrap;" vertex="1" parent="1">
          <mxGeometry x="550" y="225" width="60" height="60" as="geometry" />
        </mxCell>
        <mxCell id="KEKeuldosEZSE4gQ_pSY-17" style="edgeStyle=orthogonalEdgeStyle;rounded=0;orthogonalLoop=1;jettySize=auto;html=1;exitX=0.5;exitY=1;exitDx=0;exitDy=0;entryX=0.5;entryY=0;entryDx=0;entryDy=0;" edge="1" parent="1" target="KEKeuldosEZSE4gQ_pSY-20">
          <mxGeometry relative="1" as="geometry">
            <mxPoint x="685" y="429" as="sourcePoint" />
          </mxGeometry>
        </mxCell>
        <mxCell id="KEKeuldosEZSE4gQ_pSY-19" style="edgeStyle=orthogonalEdgeStyle;rounded=0;orthogonalLoop=1;jettySize=auto;html=1;exitX=0.5;exitY=1;exitDx=0;exitDy=0;" edge="1" parent="1" source="KEKeuldosEZSE4gQ_pSY-20" target="KEKeuldosEZSE4gQ_pSY-22">
          <mxGeometry relative="1" as="geometry" />
        </mxCell>
        <mxCell id="KEKeuldosEZSE4gQ_pSY-20" value="执行模型相关Tool&lt;div&gt;成功与失败结果处理&lt;/div&gt;" style="rounded=1;whiteSpace=wrap;html=1;absoluteArcSize=1;arcSize=14;strokeWidth=2;fillColor=#dae8fc;strokeColor=#6c8ebf;" vertex="1" parent="1">
          <mxGeometry x="580" y="469" width="210" height="70" as="geometry" />
        </mxCell>
        <mxCell id="KEKeuldosEZSE4gQ_pSY-61" style="edgeStyle=orthogonalEdgeStyle;rounded=0;orthogonalLoop=1;jettySize=auto;html=1;exitX=1;exitY=0.5;exitDx=0;exitDy=0;entryX=0;entryY=0.5;entryDx=0;entryDy=0;endArrow=none;endFill=0;startArrow=classic;startFill=1;" edge="1" parent="1" source="KEKeuldosEZSE4gQ_pSY-21" target="KEKeuldosEZSE4gQ_pSY-30">
          <mxGeometry relative="1" as="geometry" />
        </mxCell>
        <mxCell id="KEKeuldosEZSE4gQ_pSY-62" style="edgeStyle=orthogonalEdgeStyle;rounded=0;orthogonalLoop=1;jettySize=auto;html=1;exitX=1;exitY=0.5;exitDx=0;exitDy=0;entryX=0;entryY=0.5;entryDx=0;entryDy=0;endArrow=none;endFill=0;" edge="1" parent="1" source="KEKeuldosEZSE4gQ_pSY-21" target="KEKeuldosEZSE4gQ_pSY-52">
          <mxGeometry relative="1" as="geometry" />
        </mxCell>
        <mxCell id="KEKeuldosEZSE4gQ_pSY-21" value="" style="rounded=1;whiteSpace=wrap;html=1;fillColor=#dae8fc;strokeColor=#6c8ebf;" vertex="1" parent="1">
          <mxGeometry x="520" y="196" width="150" height="220" as="geometry" />
        </mxCell>
        <mxCell id="KEKeuldosEZSE4gQ_pSY-22" value="保存Tool执行结果" style="rounded=1;whiteSpace=wrap;html=1;absoluteArcSize=1;arcSize=14;strokeWidth=2;fillColor=#dae8fc;strokeColor=#6c8ebf;" vertex="1" parent="1">
          <mxGeometry x="580" y="574" width="210" height="60" as="geometry" />
        </mxCell>
        <mxCell id="KEKeuldosEZSE4gQ_pSY-69" style="edgeStyle=orthogonalEdgeStyle;rounded=0;orthogonalLoop=1;jettySize=auto;html=1;exitX=0;exitY=0.5;exitDx=0;exitDy=0;exitPerimeter=0;entryX=1;entryY=0.5;entryDx=0;entryDy=0;" edge="1" parent="1" source="KEKeuldosEZSE4gQ_pSY-23" target="KEKeuldosEZSE4gQ_pSY-14">
          <mxGeometry relative="1" as="geometry" />
        </mxCell>
        <mxCell id="KEKeuldosEZSE4gQ_pSY-23" value="Tool Feedback" style="strokeWidth=2;html=1;shape=mxgraph.flowchart.document2;whiteSpace=wrap;size=0.25;fillColor=#b0e3e6;strokeColor=#0e8088;" vertex="1" parent="1">
          <mxGeometry x="610" y="669" width="150" height="40" as="geometry" />
        </mxCell>
        <mxCell id="KEKeuldosEZSE4gQ_pSY-24" style="edgeStyle=orthogonalEdgeStyle;rounded=0;orthogonalLoop=1;jettySize=auto;html=1;exitX=0.5;exitY=1;exitDx=0;exitDy=0;" edge="1" parent="1" source="KEKeuldosEZSE4gQ_pSY-25" target="KEKeuldosEZSE4gQ_pSY-13">
          <mxGeometry relative="1" as="geometry" />
        </mxCell>
        <mxCell id="KEKeuldosEZSE4gQ_pSY-25" value="LLM解析返回&lt;div&gt;Tool相关参数&lt;br&gt;&lt;span style=&quot;background-color: initial;&quot;&gt;如 GenerateEntity_JSON&lt;/span&gt;&lt;br&gt;&lt;/div&gt;" style="rounded=1;whiteSpace=wrap;html=1;absoluteArcSize=1;arcSize=14;strokeWidth=2;fillColor=#dae8fc;strokeColor=#6c8ebf;" vertex="1" parent="1">
          <mxGeometry x="242" y="420" width="170" height="80" as="geometry" />
        </mxCell>
        <mxCell id="KEKeuldosEZSE4gQ_pSY-26" value="&lt;div&gt;LLM正常回复&lt;/div&gt;" style="rounded=1;whiteSpace=wrap;html=1;absoluteArcSize=1;arcSize=14;strokeWidth=2;fillColor=#dae8fc;strokeColor=#6c8ebf;" vertex="1" parent="1">
          <mxGeometry y="420" width="170" height="80" as="geometry" />
        </mxCell>
        <mxCell id="KEKeuldosEZSE4gQ_pSY-27" value="模型实体Tools(定义LLM Tool与相关处理函数绑定)" style="text;html=1;align=center;verticalAlign=middle;whiteSpace=wrap;rounded=0;" vertex="1" parent="1">
          <mxGeometry x="630" y="160" width="110" height="30" as="geometry" />
        </mxCell>
        <mxCell id="KEKeuldosEZSE4gQ_pSY-30" value="功能处理" style="rounded=1;whiteSpace=wrap;html=1;fillColor=#b0e3e6;strokeColor=#0e8088;" vertex="1" parent="1">
          <mxGeometry x="710" y="222.5" width="140" height="65" as="geometry" />
        </mxCell>
        <mxCell id="KEKeuldosEZSE4gQ_pSY-32" value="结果展示" style="strokeWidth=2;html=1;shape=mxgraph.flowchart.document2;whiteSpace=wrap;size=0.25;fillColor=#b0e3e6;strokeColor=#0e8088;" vertex="1" parent="1">
          <mxGeometry x="252.5" y="780" width="150" height="40" as="geometry" />
        </mxCell>
        <mxCell id="KEKeuldosEZSE4gQ_pSY-33" style="edgeStyle=orthogonalEdgeStyle;rounded=0;orthogonalLoop=1;jettySize=auto;html=1;exitX=0.5;exitY=1;exitDx=0;exitDy=0;entryX=0.5;entryY=0;entryDx=0;entryDy=0;entryPerimeter=0;" edge="1" parent="1" source="KEKeuldosEZSE4gQ_pSY-7" target="KEKeuldosEZSE4gQ_pSY-10">
          <mxGeometry relative="1" as="geometry" />
        </mxCell>
        <mxCell id="KEKeuldosEZSE4gQ_pSY-36" style="edgeStyle=orthogonalEdgeStyle;rounded=0;orthogonalLoop=1;jettySize=auto;html=1;exitX=0.5;exitY=1;exitDx=0;exitDy=0;entryX=0.5;entryY=0;entryDx=0;entryDy=0;entryPerimeter=0;" edge="1" parent="1" source="KEKeuldosEZSE4gQ_pSY-22" target="KEKeuldosEZSE4gQ_pSY-23">
          <mxGeometry relative="1" as="geometry" />
        </mxCell>
        <mxCell id="KEKeuldosEZSE4gQ_pSY-38" style="edgeStyle=orthogonalEdgeStyle;rounded=0;orthogonalLoop=1;jettySize=auto;html=1;exitX=0.5;exitY=1;exitDx=0;exitDy=0;entryX=0.5;entryY=0;entryDx=0;entryDy=0;entryPerimeter=0;" edge="1" parent="1" source="KEKeuldosEZSE4gQ_pSY-14" target="KEKeuldosEZSE4gQ_pSY-32">
          <mxGeometry relative="1" as="geometry" />
        </mxCell>
        <mxCell id="KEKeuldosEZSE4gQ_pSY-39" value="" style="endArrow=classic;html=1;rounded=0;entryX=0.5;entryY=0;entryDx=0;entryDy=0;entryPerimeter=0;exitX=0.497;exitY=0.863;exitDx=0;exitDy=0;exitPerimeter=0;" edge="1" parent="1" source="KEKeuldosEZSE4gQ_pSY-32">
          <mxGeometry width="50" height="50" relative="1" as="geometry">
            <mxPoint x="50" y="830" as="sourcePoint" />
            <mxPoint x="327.5" y="870" as="targetPoint" />
          </mxGeometry>
        </mxCell>
        <mxCell id="KEKeuldosEZSE4gQ_pSY-45" value="&lt;div&gt;&lt;br&gt;&lt;/div&gt;&lt;div&gt;GenerateEntity&lt;/div&gt;" style="strokeWidth=2;html=1;shape=mxgraph.flowchart.database;whiteSpace=wrap;fillColor=#f8cecc;strokeColor=#b85450;labelPosition=center;verticalLabelPosition=middle;align=center;verticalAlign=middle;" vertex="1" parent="1">
          <mxGeometry x="550" y="213" width="90" height="50" as="geometry" />
        </mxCell>
        <mxCell id="KEKeuldosEZSE4gQ_pSY-46" value="&lt;div&gt;&lt;br&gt;&lt;/div&gt;&lt;div&gt;ChangeEntity&lt;/div&gt;" style="strokeWidth=2;html=1;shape=mxgraph.flowchart.database;whiteSpace=wrap;fillColor=#f8cecc;strokeColor=#b85450;" vertex="1" parent="1">
          <mxGeometry x="550" y="268" width="90" height="50" as="geometry" />
        </mxCell>
        <mxCell id="KEKeuldosEZSE4gQ_pSY-47" value="&lt;div&gt;&lt;br&gt;&lt;/div&gt;&lt;div&gt;DeleteEntity&lt;/div&gt;" style="strokeWidth=2;html=1;shape=mxgraph.flowchart.database;whiteSpace=wrap;fillColor=#f8cecc;strokeColor=#b85450;" vertex="1" parent="1">
          <mxGeometry x="550" y="323" width="90" height="50" as="geometry" />
        </mxCell>
        <mxCell id="KEKeuldosEZSE4gQ_pSY-52" value="业务逻辑错误处理&lt;br&gt;与错误反馈" style="rounded=1;whiteSpace=wrap;html=1;fillColor=#b0e3e6;strokeColor=#0e8088;" vertex="1" parent="1">
          <mxGeometry x="710" y="315" width="140" height="65" as="geometry" />
        </mxCell>
        <mxCell id="KEKeuldosEZSE4gQ_pSY-58" value="&lt;b&gt;&lt;font style=&quot;font-size: 16px;&quot;&gt;.....&lt;/font&gt;&lt;/b&gt;" style="text;html=1;align=center;verticalAlign=middle;whiteSpace=wrap;rounded=0;" vertex="1" parent="1">
          <mxGeometry x="569" y="375" width="60" height="30" as="geometry" />
        </mxCell>
        <mxCell id="KEKeuldosEZSE4gQ_pSY-74" style="edgeStyle=orthogonalEdgeStyle;rounded=0;orthogonalLoop=1;jettySize=auto;html=1;exitX=0.5;exitY=1;exitDx=0;exitDy=0;entryX=0;entryY=0.5;entryDx=0;entryDy=0;entryPerimeter=0;" edge="1" parent="1" source="KEKeuldosEZSE4gQ_pSY-26" target="KEKeuldosEZSE4gQ_pSY-32">
          <mxGeometry relative="1" as="geometry" />
        </mxCell>
        <mxCell id="KEKeuldosEZSE4gQ_pSY-77" style="edgeStyle=orthogonalEdgeStyle;rounded=0;orthogonalLoop=1;jettySize=auto;html=1;exitX=0;exitY=0.5;exitDx=0;exitDy=0;exitPerimeter=0;entryX=0;entryY=0.5;entryDx=0;entryDy=0;" edge="1" parent="1" source="KEKeuldosEZSE4gQ_pSY-76" target="KEKeuldosEZSE4gQ_pSY-7">
          <mxGeometry relative="1" as="geometry">
            <Array as="points">
              <mxPoint x="-30" y="905" />
              <mxPoint x="-30" y="220" />
            </Array>
          </mxGeometry>
        </mxCell>
        <mxCell id="KEKeuldosEZSE4gQ_pSY-78" value="继续对话" style="edgeLabel;html=1;align=center;verticalAlign=middle;resizable=0;points=[];" vertex="1" connectable="0" parent="KEKeuldosEZSE4gQ_pSY-77">
          <mxGeometry relative="1" as="geometry">
            <mxPoint y="-2" as="offset" />
          </mxGeometry>
        </mxCell>
        <mxCell id="KEKeuldosEZSE4gQ_pSY-80" style="edgeStyle=orthogonalEdgeStyle;rounded=0;orthogonalLoop=1;jettySize=auto;html=1;exitX=1;exitY=0.5;exitDx=0;exitDy=0;exitPerimeter=0;entryX=0;entryY=0.5;entryDx=0;entryDy=0;" edge="1" parent="1" source="KEKeuldosEZSE4gQ_pSY-76">
          <mxGeometry relative="1" as="geometry">
            <mxPoint x="475" y="905" as="targetPoint" />
          </mxGeometry>
        </mxCell>
        <mxCell id="KEKeuldosEZSE4gQ_pSY-81" value="生成" style="edgeLabel;html=1;align=center;verticalAlign=middle;resizable=0;points=[];" vertex="1" connectable="0" parent="KEKeuldosEZSE4gQ_pSY-80">
          <mxGeometry relative="1" as="geometry">
            <mxPoint as="offset" />
          </mxGeometry>
        </mxCell>
        <mxCell id="KEKeuldosEZSE4gQ_pSY-76" value="是否生成&lt;br&gt;实体与页面" style="strokeWidth=2;html=1;shape=mxgraph.flowchart.decision;whiteSpace=wrap;fillColor=#d5e8d4;strokeColor=#82b366;" vertex="1" parent="1">
          <mxGeometry x="277.5" y="870" width="100" height="70" as="geometry" />
        </mxCell>
        <mxCell id="KEKeuldosEZSE4gQ_pSY-84" style="edgeStyle=orthogonalEdgeStyle;rounded=0;orthogonalLoop=1;jettySize=auto;html=1;exitX=1;exitY=0.5;exitDx=0;exitDy=0;" edge="1" parent="1" source="KEKeuldosEZSE4gQ_pSY-82" target="KEKeuldosEZSE4gQ_pSY-83">
          <mxGeometry relative="1" as="geometry" />
        </mxCell>
        <mxCell id="KEKeuldosEZSE4gQ_pSY-82" value="根据实体模型生成实体与页面" style="rounded=1;whiteSpace=wrap;html=1;absoluteArcSize=1;arcSize=14;strokeWidth=2;fillColor=#dae8fc;strokeColor=#6c8ebf;" vertex="1" parent="1">
          <mxGeometry x="475" y="875" width="210" height="60" as="geometry" />
        </mxCell>
        <mxCell id="KEKeuldosEZSE4gQ_pSY-83" value="结束" style="strokeWidth=2;html=1;shape=mxgraph.flowchart.terminator;whiteSpace=wrap;fillColor=#ffe6cc;strokeColor=#d79b00;" vertex="1" parent="1">
          <mxGeometry x="750" y="880" width="90" height="50" as="geometry" />
        </mxCell>
      </root>
    </mxGraphModel>
  </diagram>
</mxfile>
